<?xml version="1.0" encoding="utf-8"?>
<svg xmlns="http://www.w3.org/2000/svg" viewBox="0 0 38 24" width="38" height="24" aria-labelledby="pi-payu">
  <path opacity=".07" d="M35 0H3C1.3 0 0 1.3 0 3v18c0 1.7 1.4 3 3 3h32c1.7 0 3-1.3 3-3V3c0-1.7-1.4-3-3-3"/>
  <path fill="#fff" d="M35 1c1.1 0 2 .9 2 2v18c0 1.1-.9 2-2 2H3c-1.1 0-2-.9-2-2V3c0-1.1.9-2 2-2z"/>
  <style>.st0{opacity:7.000000e-02;enable-background:new}.st1{fill:#fff}</style>
  <path class="st0" d="M35 0H3C1.3 0 0 1.3 0 3v18c0 1.7 1.4 3 3 3h32c1.7 0 3-1.3 3-3V3c0-1.7-1.4-3-3-3"/>
  <path class="st1" d="M35 1c1.1 0 2 .9 2 2v18c0 1.1-.9 2-2 2H3c-1.1 0-2-.9-2-2V3c0-1.1.9-2 2-2z"/>
  <path class="st0" d="M35 0H3C1.3 0 0 1.3 0 3v18c0 1.7 1.4 3 3 3h32c1.7 0 3-1.3 3-3V3c0-1.7-1.4-3-3-3"/>
  <path class="st1" d="M35 1c1.1 0 2 .9 2 2v18c0 1.1-.9 2-2 2H3c-1.1 0-2-.9-2-2V3c0-1.1.9-2 2-2z"/>
  <path d="M 10.73 6.106 C 10.73 5.449 11.262 4.917 11.917 4.917 L 26.172 4.917 C 26.827 4.917 27.359 5.449 27.359 6.106 L 10.73 6.106 Z M 19.044 15.609 C 20.873 15.609 22.016 13.628 21.102 12.045 C 20.678 11.31 19.894 10.856 19.044 10.856 C 17.216 10.856 16.073 12.837 16.987 14.421 C 17.411 15.155 18.195 15.609 19.044 15.609 Z" style="stroke-width: 50; fill: rgb(228, 77, 75);"/>
  <path d="M 9.542 8.48 C 9.542 7.824 10.073 7.293 10.73 7.293 L 27.359 7.293 C 28.016 7.293 28.547 7.824 28.547 8.48 L 28.547 17.983 C 28.547 18.64 28.016 19.172 27.359 19.172 L 10.73 19.172 C 10.073 19.172 9.542 18.64 9.542 17.983 L 9.542 8.48 Z M 13.106 8.48 C 13.106 9.794 12.041 10.856 10.73 10.856 L 10.73 15.609 C 12.041 15.609 13.106 16.672 13.106 17.983 L 24.983 17.983 C 24.983 16.672 26.048 15.609 27.359 15.609 L 27.359 10.856 C 26.048 10.856 24.983 9.794 24.983 8.48 L 13.106 8.48 Z" style="stroke-width: 50; fill: rgb(35, 31, 32);"/>
</svg>